<svg width="24" height="24" viewBox="0 0 24 24" fill="none" xmlns="http://www.w3.org/2000/svg">
<path d="M10.834 17.8336H13.1673V10.8336H10.834V17.8336ZM12.0007 0.333588C5.56065 0.333588 0.333984 5.56025 0.333984 12.0002C0.333984 18.4402 5.56065 23.6669 12.0007 23.6669C18.4407 23.6669 23.6673 18.4402 23.6673 12.0002C23.6673 5.56025 18.4407 0.333588 12.0007 0.333588ZM12.0007 21.3336C6.85565 21.3336 2.66732 17.1452 2.66732 12.0002C2.66732 6.85525 6.85565 2.66692 12.0007 2.66692C17.1457 2.66692 21.334 6.85525 21.334 12.0002C21.334 17.1452 17.1457 21.3336 12.0007 21.3336ZM10.834 8.50025H13.1673V6.16692H10.834V8.50025Z" fill="black"/>
</svg>
