<svg width="24" height="22" viewBox="0 0 24 22" fill="none" xmlns="http://www.w3.org/2000/svg">
<path d="M17.2507 0.5C15.2207 0.5 13.2723 1.445 12.0007 2.93833C10.729 1.445 8.78065 0.5 6.75065 0.5C3.15732 0.5 0.333984 3.32333 0.333984 6.91666C0.333984 11.3267 4.30065 14.92 10.309 20.38L12.0007 21.9083L13.6923 20.3683C19.7007 14.92 23.6673 11.3267 23.6673 6.91666C23.6673 3.32333 20.844 0.5 17.2507 0.5ZM12.1173 18.6417L12.0007 18.7583L11.884 18.6417C6.33065 13.6133 2.66732 10.2883 2.66732 6.91666C2.66732 4.58333 4.41732 2.83333 6.75065 2.83333C8.54732 2.83333 10.2973 3.98833 10.9157 5.58666H13.0973C13.704 3.98833 15.454 2.83333 17.2507 2.83333C19.584 2.83333 21.334 4.58333 21.334 6.91666C21.334 10.2883 17.6707 13.6133 12.1173 18.6417Z" fill="black"/>
</svg>
