<svg width="24" height="23" viewBox="0 0 24 23" fill="none" xmlns="http://www.w3.org/2000/svg">
<path d="M21.334 5.00051H18.7907C18.919 4.63885 19.0007 4.24218 19.0007 3.83385C19.0007 1.89718 17.4373 0.333847 15.5007 0.333847C14.2757 0.333847 13.214 0.963847 12.584 1.90885L12.0007 2.69051L11.4173 1.89718C10.7873 0.963847 9.72565 0.333847 8.50065 0.333847C6.56398 0.333847 5.00065 1.89718 5.00065 3.83385C5.00065 4.24218 5.08232 4.63885 5.21065 5.00051H2.66732C1.37232 5.00051 0.345651 6.03885 0.345651 7.33384L0.333984 20.1672C0.333984 21.4622 1.37232 22.5005 2.66732 22.5005H21.334C22.629 22.5005 23.6673 21.4622 23.6673 20.1672V7.33384C23.6673 6.03885 22.629 5.00051 21.334 5.00051ZM15.5007 2.66718C16.1423 2.66718 16.6673 3.19218 16.6673 3.83385C16.6673 4.47551 16.1423 5.00051 15.5007 5.00051C14.859 5.00051 14.334 4.47551 14.334 3.83385C14.334 3.19218 14.859 2.66718 15.5007 2.66718ZM8.50065 2.66718C9.14232 2.66718 9.66732 3.19218 9.66732 3.83385C9.66732 4.47551 9.14232 5.00051 8.50065 5.00051C7.85898 5.00051 7.33398 4.47551 7.33398 3.83385C7.33398 3.19218 7.85898 2.66718 8.50065 2.66718ZM21.334 20.1672H2.66732V17.8338H21.334V20.1672ZM21.334 14.3338H2.66732V7.33384H8.59398L6.16732 10.6355L8.05732 12.0005L10.834 8.22051L12.0007 6.63384L13.1673 8.22051L15.944 12.0005L17.834 10.6355L15.4073 7.33384H21.334V14.3338Z" fill="black"/>
</svg>
