<svg width="22" height="24" viewBox="0 0 22 24" fill="none" xmlns="http://www.w3.org/2000/svg">
<path d="M18 16.7605C17.1133 16.7605 16.32 17.1105 15.7133 17.6588L7.395 12.8172C7.45333 12.5488 7.5 12.2805 7.5 12.0005C7.5 11.7205 7.45333 11.4522 7.395 11.1838L15.62 6.38884C16.25 6.97218 17.0783 7.33384 18 7.33384C19.9367 7.33384 21.5 5.77051 21.5 3.83385C21.5 1.89718 19.9367 0.333847 18 0.333847C16.0633 0.333847 14.5 1.89718 14.5 3.83385C14.5 4.11385 14.5467 4.38218 14.605 4.65051L6.38 9.44551C5.75 8.86218 4.92167 8.50051 4 8.50051C2.06333 8.50051 0.5 10.0638 0.5 12.0005C0.5 13.9372 2.06333 15.5005 4 15.5005C4.92167 15.5005 5.75 15.1388 6.38 14.5555L14.6867 19.4088C14.6283 19.6538 14.5933 19.9105 14.5933 20.1672C14.5933 22.0455 16.1217 23.5738 18 23.5738C19.8783 23.5738 21.4067 22.0455 21.4067 20.1672C21.4067 18.2888 19.8783 16.7605 18 16.7605Z" fill="black"/>
</svg>
