<svg width="24" height="24" viewBox="0 0 24 24" fill="none" xmlns="http://www.w3.org/2000/svg">
<path d="M11.2674 16.0505C10.6081 16.5449 9.66736 16.0745 9.66736 15.2505V8.75049C9.66736 7.92644 10.6081 7.45606 11.2674 7.95049L15.6007 11.2005C16.134 11.6005 16.134 12.4005 15.6007 12.8005L11.2674 16.0505Z" fill="#202020"/>
<path fill-rule="evenodd" clip-rule="evenodd" d="M12.0007 2.33374C6.66522 2.33374 2.33398 6.66498 2.33398 12.0004C2.33398 17.3358 6.66522 21.6671 12.0007 21.6671C17.3361 21.6671 21.6673 17.3358 21.6673 12.0004C21.6673 6.66498 17.3361 2.33374 12.0007 2.33374ZM0.333984 12.0004C0.333984 5.5604 5.56065 0.33374 12.0007 0.33374C18.4407 0.33374 23.6673 5.5604 23.6673 12.0004C23.6673 18.4404 18.4407 23.6671 12.0007 23.6671C5.56065 23.6671 0.333984 18.4404 0.333984 12.0004Z" fill="#202020"/>
</svg>
