<svg width="21" height="22" viewBox="0 0 21 22" fill="none" xmlns="http://www.w3.org/2000/svg">
<path d="M10.349 6.97901C10.035 6.97901 9.76097 7.25302 9.76097 7.56702V16.622C9.76097 16.936 10.035 17.21 10.349 17.21C10.663 17.21 10.937 16.936 10.937 16.622V7.56702C10.937 7.25302 10.663 6.97901 10.349 6.97901Z" fill="black"/>
<path d="M6.82096 6.97902C6.50696 7.01802 6.27198 7.29303 6.27198 7.60603L6.97797 16.661C7.01697 16.975 7.25198 17.21 7.56598 17.21H7.60498C7.91898 17.171 8.15396 16.896 8.15396 16.583L7.44797 7.52803C7.40897 7.21403 7.13496 6.93902 6.82096 6.97902Z" fill="black"/>
<path d="M20.11 2.78403H14.779V1.29401C14.779 0.588006 14.191 0 13.485 0H7.21301C6.50701 0 5.91901 0.588006 5.91901 1.29401V2.78403H0.588013C0.274013 2.78403 0 3.05801 0 3.37201C0 3.68601 0.274013 3.96002 0.588013 3.96002H2.15601L3.95898 18.268C4.11598 19.993 5.56599 21.365 7.32999 21.365H13.367C15.092 21.365 16.581 19.993 16.738 18.307L18.541 3.96002H20.109C20.423 3.96002 20.697 3.68601 20.697 3.37201C20.698 3.05901 20.423 2.78403 20.11 2.78403ZM7.095 1.29501C7.095 1.21701 7.13401 1.177 7.21301 1.177H13.485C13.563 1.177 13.603 1.21601 13.603 1.29501V2.785H7.09601V1.29501H7.095ZM15.563 18.19C15.485 19.327 14.505 20.189 13.368 20.189H7.33099C6.19399 20.189 5.21399 19.287 5.13599 18.151L3.33301 3.96103H17.327L15.563 18.19Z" fill="black"/>
<path d="M13.25 7.52701L12.544 16.582C12.505 16.896 12.779 17.17 13.093 17.209H13.132C13.446 17.209 13.681 16.974 13.72 16.66L14.426 7.60502C14.465 7.29102 14.191 7.01703 13.877 6.97803C13.563 6.93903 13.289 7.21401 13.25 7.52701Z" fill="black"/>
</svg>
