<svg width="23" height="25" viewBox="0 0 23 25" fill="none" xmlns="http://www.w3.org/2000/svg">
<path fill-rule="evenodd" clip-rule="evenodd" d="M10.9171 10C13.1263 10 14.9171 8.20914 14.9171 6C14.9171 3.79086 13.1263 2 10.9171 2C8.70798 2 6.91711 3.79086 6.91711 6C6.91711 8.20914 8.70798 10 10.9171 10ZM10.9171 12C14.2308 12 16.9171 9.31371 16.9171 6C16.9171 2.68629 14.2308 0 10.9171 0C7.60341 0 4.91711 2.68629 4.91711 6C4.91711 9.31371 7.60341 12 10.9171 12Z" fill="black"/>
<path fill-rule="evenodd" clip-rule="evenodd" d="M2.01903 22.5H20.8337C20.6173 20.1127 19.9691 18.3507 18.7468 17.1569C17.5124 15.9512 15.3562 15 11.4171 15C7.73279 15 5.57304 15.9358 4.27536 17.1736C2.99814 18.3919 2.27215 20.1723 2.01903 22.5ZM0.00840145 22.5018C0.528475 17.103 3.38286 13 11.4171 13C19.8972 13 22.4012 17.1026 22.8411 22.5009C22.9309 23.6018 22.0217 24.5 20.9171 24.5H1.9171C0.81253 24.5 -0.0975131 23.6013 0.00840145 22.5018Z" fill="black"/>
</svg>
