<svg width="20" height="26" viewBox="0 0 20 26" fill="none" xmlns="http://www.w3.org/2000/svg">
<path d="M9.99935 3.66641V0.166412L5.33268 4.83308L9.99935 9.49974V5.99974C13.861 5.99974 16.9993 9.13808 16.9993 12.9997C16.9993 14.1781 16.7077 15.2981 16.1827 16.2664L17.886 17.9697C18.796 16.5347 19.3327 14.8314 19.3327 12.9997C19.3327 7.84308 15.156 3.66641 9.99935 3.66641ZM9.99935 19.9997C6.13768 19.9997 2.99935 16.8614 2.99935 12.9997C2.99935 11.8214 3.29102 10.7014 3.81602 9.73308L2.11268 8.02974C1.20268 9.46474 0.666016 11.1681 0.666016 12.9997C0.666016 18.1564 4.84268 22.3331 9.99935 22.3331V25.8331L14.666 21.1664L9.99935 16.4997V19.9997Z" fill="black"/>
</svg>
