<svg width="24" height="24" viewBox="0 0 24 24" fill="none" xmlns="http://www.w3.org/2000/svg">
<path d="M12.0007 0.333588C5.56065 0.333588 0.333984 5.56025 0.333984 12.0002C0.333984 18.4402 5.56065 23.6669 12.0007 23.6669C18.4407 23.6669 23.6673 18.4402 23.6673 12.0002C23.6673 5.56025 18.4407 0.333588 12.0007 0.333588ZM13.6457 19.1052V21.3336H10.5307V19.0819C8.53565 18.6619 6.84398 17.3786 6.71565 15.1152H9.00232C9.11899 16.3402 9.95899 17.2969 12.094 17.2969C14.3807 17.2969 14.894 16.1536 14.894 15.4419C14.894 14.4736 14.3807 13.5636 11.779 12.9453C8.88565 12.2453 6.90232 11.0553 6.90232 8.66359C6.90232 6.65692 8.52398 5.35025 10.5307 4.91859V2.66692H13.6457V4.94192C15.8157 5.46692 16.9007 7.11192 16.9707 8.89692H14.684C14.6257 7.60192 13.9373 6.71525 12.094 6.71525C10.344 6.71525 9.29399 7.50858 9.29399 8.62858C9.29399 9.60858 10.0523 10.2503 12.409 10.8569C14.7657 11.4636 17.2857 12.4786 17.2857 15.4186C17.274 17.5536 15.6757 18.7202 13.6457 19.1052Z" fill="black"/>
</svg>
