<svg width="26" height="20" viewBox="0 0 26 20" fill="none" xmlns="http://www.w3.org/2000/svg">
<path d="M22.3327 5.33308H18.8327V0.666412H2.49935C1.21602 0.666412 0.166016 1.71641 0.166016 2.99974V15.8331H2.49935C2.49935 17.7697 4.06268 19.3331 5.99935 19.3331C7.93602 19.3331 9.49935 17.7697 9.49935 15.8331H16.4993C16.4993 17.7697 18.0627 19.3331 19.9993 19.3331C21.936 19.3331 23.4994 17.7697 23.4994 15.8331H25.8327V9.99974L22.3327 5.33308ZM5.99935 17.5831C5.03102 17.5831 4.24935 16.8014 4.24935 15.8331C4.24935 14.8647 5.03102 14.0831 5.99935 14.0831C6.96768 14.0831 7.74935 14.8647 7.74935 15.8331C7.74935 16.8014 6.96768 17.5831 5.99935 17.5831ZM21.7493 7.08308L24.036 9.99974H18.8327V7.08308H21.7493ZM19.9993 17.5831C19.031 17.5831 18.2493 16.8014 18.2493 15.8331C18.2493 14.8647 19.031 14.0831 19.9993 14.0831C20.9677 14.0831 21.7493 14.8647 21.7493 15.8331C21.7493 16.8014 20.9677 17.5831 19.9993 17.5831Z" fill="black"/>
</svg>
