<svg width="23" height="18" viewBox="0 0 23 18" fill="none" xmlns="http://www.w3.org/2000/svg">
<path d="M5.00065 0.833588H1.50065C0.858984 0.833588 0.333984 1.35859 0.333984 2.00025V16.0002C0.333984 16.6419 0.858984 17.1669 1.50065 17.1669H5.00065C5.64232 17.1669 6.16732 16.6419 6.16732 16.0002V2.00025C6.16732 1.35859 5.64232 0.833588 5.00065 0.833588ZM21.334 0.833588H17.834C17.1923 0.833588 16.6673 1.35859 16.6673 2.00025V16.0002C16.6673 16.6419 17.1923 17.1669 17.834 17.1669H21.334C21.9757 17.1669 22.5007 16.6419 22.5007 16.0002V2.00025C22.5007 1.35859 21.9757 0.833588 21.334 0.833588ZM13.1673 0.833588H9.66732C9.02565 0.833588 8.50065 1.35859 8.50065 2.00025V16.0002C8.50065 16.6419 9.02565 17.1669 9.66732 17.1669H13.1673C13.809 17.1669 14.334 16.6419 14.334 16.0002V2.00025C14.334 1.35859 13.809 0.833588 13.1673 0.833588Z" fill="black"/>
</svg>
