<svg width="28" height="28" viewBox="0 0 28 28" fill="none" xmlns="http://www.w3.org/2000/svg">
<path d="M7.72333 12.5886C9.40333 15.8902 12.11 18.5852 15.4117 20.2769L17.9783 17.7102C18.2933 17.3952 18.76 17.2902 19.1683 17.4302C20.475 17.8619 21.8867 18.0952 23.3333 18.0952C23.975 18.0952 24.5 18.6202 24.5 19.2619V23.3336C24.5 23.9752 23.975 24.5002 23.3333 24.5002C12.3783 24.5002 3.5 15.6219 3.5 4.66691C3.5 4.02524 4.025 3.50024 4.66667 3.50024H8.75C9.39167 3.50024 9.91667 4.02524 9.91667 4.66691C9.91667 6.12524 10.15 7.52524 10.5817 8.83191C10.71 9.24024 10.6167 9.69524 10.29 10.0219L7.72333 12.5886Z" fill="black"/>
</svg>
