<svg width="28" height="28" viewBox="0 0 28 28" fill="none" xmlns="http://www.w3.org/2000/svg">
<path d="M12.834 21.0002H15.1673V18.6669H12.834V21.0002ZM14.0007 2.33359C7.56065 2.33359 2.33398 7.56025 2.33398 14.0002C2.33398 20.4402 7.56065 25.6669 14.0007 25.6669C20.4407 25.6669 25.6673 20.4402 25.6673 14.0002C25.6673 7.56025 20.4407 2.33359 14.0007 2.33359ZM14.0007 23.3336C8.85565 23.3336 4.66732 19.1452 4.66732 14.0002C4.66732 8.85525 8.85565 4.66692 14.0007 4.66692C19.1457 4.66692 23.334 8.85525 23.334 14.0002C23.334 19.1452 19.1457 23.3336 14.0007 23.3336ZM14.0007 7.00025C11.4223 7.00025 9.33398 9.08859 9.33398 11.6669H11.6673C11.6673 10.3836 12.7173 9.33359 14.0007 9.33359C15.284 9.33359 16.334 10.3836 16.334 11.6669C16.334 14.0002 12.834 13.7086 12.834 17.5002H15.1673C15.1673 14.8752 18.6673 14.5836 18.6673 11.6669C18.6673 9.08859 16.579 7.00025 14.0007 7.00025Z" fill="black"/>
</svg>
