<svg width="14" height="15" viewBox="0 0 14 15" fill="none" xmlns="http://www.w3.org/2000/svg">
<path d="M7.58578 1C7.58578 0.447754 7.13806 0 6.58578 0C6.03351 0 5.58578 0.447754 5.58578 1V10.3672L1.9379 6.72729C1.54724 6.3374 0.914673 6.33789 0.524445 6.72803L0.292877 6.95972C-0.0976257 7.3501 -0.0976257 7.9834 0.292877 8.37378L5.87869 13.9597C6.2692 14.3501 6.90237 14.3501 7.29288 13.9597L12.8787 8.37378C13.2692 7.9834 13.2692 7.3501 12.8787 6.95972L12.6471 6.72803C12.2569 6.33789 11.6243 6.3374 11.2337 6.72729L7.58578 10.3672V1Z" fill="black"/>
</svg>
